<svg width="1280" height="239" viewBox="0 0 1280 239" fill="none" xmlns="http://www.w3.org/2000/svg">
<path fill-rule="evenodd" clip-rule="evenodd" d="M0 89.625L19.2 79.6667C38.4 69.7083 77.8667 49.7917 116.267 54.7708C154.667 59.75 194.133 89.625 232.533 94.6042C272 99.5833 310.4 79.6667 348.8 69.7083C388.267 59.75 426.667 59.75 465.067 79.6667C504.533 99.5833 542.933 139.417 581.333 159.333C620.8 179.25 659.2 179.25 698.667 194.188C737.067 209.125 775.467 239 814.933 224.062C853.333 209.125 891.733 149.375 931.2 154.354C969.6 159.333 1008 229.042 1047.47 214.104C1085.87 199.167 1125.33 99.5833 1163.73 89.625C1202.13 79.6667 1241.6 159.333 1260.8 199.167L1280 239V0H1260.8C1241.6 0 1202.13 0 1163.73 0C1125.33 0 1085.87 0 1047.47 0C1008 0 969.6 0 931.2 0C891.733 0 853.333 0 814.933 0C775.467 0 737.067 0 698.667 0C659.2 0 620.8 0 581.333 0C542.933 0 504.533 0 465.067 0C426.667 0 388.267 0 348.8 0C310.4 0 272 0 232.533 0C194.133 0 154.667 0 116.267 0C77.8667 0 38.4 0 19.2 0H0V89.625Z" fill="#0099FF"/>
</svg>
