<?xml version="1.0" standalone="no"?>
<!DOCTYPE svg PUBLIC "-//W3C//DTD SVG 20010904//EN"
 "http://www.w3.org/TR/2001/REC-SVG-20010904/DTD/svg10.dtd">
<svg version="1.0" xmlns="http://www.w3.org/2000/svg"
 width="604.000000pt" height="604.000000pt" viewBox="0 0 604.000000 604.000000"
 preserveAspectRatio="xMidYMid meet">
<metadata>
Created by potrace 1.14, written by Peter Selinger 2001-2017
</metadata>
<g transform="translate(0.000000,604.000000) scale(0.100000,-0.100000)"
fill="#000000" stroke="none">
<path d="M2880 6029 c0 -4 -9 -6 -20 -4 -11 2 -20 -1 -20 -7 0 -6 -3 -9 -6 -5
-6 6 -84 -21 -94 -32 -3 -3 -18 -13 -35 -21 -45 -23 -165 -146 -165 -170 0 -6
-5 -10 -11 -10 -5 0 -7 -4 -4 -10 3 -5 2 -10 -3 -10 -6 0 -13 -16 -16 -35 -4
-19 -11 -35 -16 -35 -6 0 -9 -3 -9 -7 1 -5 0 -10 -1 -13 -17 -46 -19 -272 -2
-293 7 -8 12 -19 11 -23 -1 -5 4 -22 11 -39 7 -16 13 -33 12 -37 -1 -5 2 -8 7
-8 5 0 14 -13 21 -30 7 -16 16 -30 21 -30 5 0 9 -4 9 -9 0 -14 74 -86 122
-119 47 -32 133 -72 154 -72 8 0 15 -6 15 -12 6 -51 3 -95 -6 -107 -7 -10 -7
-13 1 -9 11 7 13 -197 1 -208 -4 -4 -2 -13 5 -21 16 -20 -1 -34 -48 -40 -22
-3 -59 -9 -84 -13 -24 -5 -48 -6 -52 -4 -5 3 -8 1 -8 -5 0 -5 -11 -8 -25 -7
-13 2 -22 0 -20 -4 3 -4 -15 -11 -40 -14 -25 -4 -45 -11 -45 -17 0 -5 -5 -9
-11 -9 -5 0 -7 5 -3 11 3 6 -4 4 -17 -4 -13 -8 -39 -18 -56 -22 -18 -4 -33
-11 -33 -16 0 -6 -4 -8 -9 -4 -5 3 -12 1 -16 -5 -3 -5 -15 -10 -25 -10 -10 0
-25 -7 -33 -15 -8 -7 -26 -17 -41 -21 -14 -3 -26 -9 -26 -13 0 -3 -20 -15 -45
-26 -25 -11 -45 -23 -45 -27 0 -5 -6 -8 -14 -8 -8 0 -16 -3 -18 -7 -1 -5 -28
-25 -58 -45 -31 -21 -65 -46 -77 -58 l-22 -20 -6 21 c-4 11 -9 19 -11 16 -8
-8 -474 465 -474 482 1 9 7 34 15 56 16 44 30 136 27 175 -1 14 -3 32 -3 40
-2 37 -33 150 -41 150 -5 0 -7 4 -3 9 3 5 1 12 -5 16 -5 3 -17 21 -26 40 -9
19 -31 50 -49 69 -18 19 -30 37 -27 40 3 4 -1 6 -10 6 -8 0 -25 11 -38 25 -13
14 -29 25 -36 25 -6 0 -14 7 -18 15 -3 8 -12 15 -21 15 -8 0 -32 9 -52 20 -21
11 -48 20 -60 20 -12 0 -24 3 -27 8 -2 4 -25 7 -50 6 -25 -1 -46 3 -46 8 0 5
-6 6 -12 1 -7 -4 -31 -8 -53 -9 -22 -1 -40 -3 -40 -4 0 -2 -35 -10 -57 -12
-10 -1 -18 -6 -18 -10 0 -4 -10 -5 -21 -3 -12 3 -19 2 -16 -1 3 -3 -20 -19
-51 -36 -31 -16 -69 -43 -84 -59 -16 -17 -28 -27 -28 -22 0 15 -100 -130 -106
-154 -4 -12 -11 -23 -18 -23 -6 0 -4 -5 4 -10 8 -5 10 -10 4 -10 -10 0 -19
-26 -30 -85 -1 -5 -3 -12 -4 -15 -6 -12 -5 -150 0 -150 4 0 7 -7 7 -15 0 -32
27 -124 35 -119 4 3 8 -2 8 -12 0 -15 35 -81 49 -94 4 -3 23 -24 43 -48 21
-23 38 -40 38 -37 0 5 29 -18 55 -42 8 -7 20 -13 27 -13 8 0 19 -5 24 -10 41
-41 266 -77 301 -49 11 9 14 10 9 2 -8 -14 6 -18 18 -5 4 4 15 7 24 8 22 1 45
10 114 43 39 19 62 25 72 19 25 -14 64 -56 58 -62 -3 -3 -1 -6 5 -6 13 0 133
-120 133 -133 0 -4 5 -5 10 -2 6 3 14 -4 19 -17 6 -13 10 -20 10 -17 1 4 55
-48 122 -114 96 -96 118 -123 108 -132 -8 -6 -18 -18 -24 -27 -5 -9 -38 -57
-73 -106 -34 -50 -65 -99 -69 -109 -4 -10 -9 -20 -13 -23 -10 -8 -80 -160 -73
-160 3 0 0 -6 -6 -14 -17 -20 -65 -172 -85 -271 -4 -16 -9 -50 -13 -75 -6 -47
-10 -71 -13 -80 -1 -3 -2 -7 -2 -10 0 -3 -21 -6 -48 -6 -27 0 -47 3 -45 6 2 4
-2 7 -10 7 -8 0 -12 -4 -9 -8 7 -12 -60 -6 -68 6 -5 7 -8 7 -8 0 0 -7 -38 -10
-100 -10 l-100 0 -36 72 c-55 112 -171 221 -266 252 -21 7 -38 18 -38 24 0 7
-4 6 -10 -3 -5 -8 -10 -10 -10 -3 0 10 -93 27 -150 26 -56 -1 -129 -14 -166
-30 -21 -9 -44 -18 -51 -19 -23 -4 -124 -77 -156 -112 -18 -19 -40 -43 -49
-53 -10 -11 -19 -22 -19 -26 -3 -17 -13 -38 -20 -43 -9 -6 -37 -82 -47 -125
-13 -60 -6 -265 10 -265 4 0 8 -9 8 -19 0 -11 5 -23 10 -26 6 -4 8 -10 5 -15
-3 -5 -1 -11 5 -15 6 -4 8 -11 5 -16 -4 -5 -1 -9 4 -9 6 0 11 -5 11 -11 0 -6
17 -32 38 -57 51 -65 59 -72 66 -65 3 4 6 2 6 -4 0 -6 19 -23 43 -39 23 -16
45 -33 48 -37 3 -5 10 -9 15 -9 5 -1 23 -6 39 -12 17 -5 33 -9 38 -8 4 1 7 -3
7 -8 0 -5 3 -9 8 -8 4 1 30 -2 57 -7 65 -11 134 -9 204 6 31 7 59 12 64 11 4
-1 7 2 7 7 0 5 13 12 30 16 16 4 30 10 30 13 0 4 14 13 32 21 17 8 48 31 69
52 20 20 40 35 43 31 3 -3 6 1 6 9 0 8 9 22 20 32 11 9 20 24 20 32 0 8 5 15
10 15 6 0 10 7 10 15 0 8 5 15 12 15 6 0 9 3 6 6 -4 3 0 17 7 31 8 15 12 30 9
35 -3 4 0 8 5 8 6 0 11 9 11 20 0 11 3 20 8 21 44 5 92 3 92 -4 0 -4 9 -3 20
3 15 8 20 8 20 -2 0 -8 3 -9 8 -3 10 14 32 17 32 4 0 -8 6 -7 17 2 13 11 17
11 20 2 3 -9 10 -10 24 -3 13 8 19 7 19 0 0 -7 6 -8 19 0 14 7 21 6 24 -3 4
-9 6 -9 6 0 1 9 8 10 26 3 17 -7 25 -6 25 1 0 8 5 7 15 -1 8 -7 12 -16 9 -21
-3 -5 -1 -9 3 -9 5 0 10 -21 11 -47 1 -27 4 -59 7 -73 9 -44 18 -95 18 -107 0
-7 4 -13 9 -13 4 0 8 -9 8 -19 0 -31 47 -170 83 -243 18 -36 28 -64 22 -60
-12 7 15 -30 30 -40 7 -5 7 -8 0 -8 -5 0 -5 -4 2 -8 6 -4 13 -14 15 -22 2 -8
6 -19 11 -25 4 -5 28 -41 54 -80 26 -38 53 -76 60 -83 11 -12 -5 -32 -97 -124
-60 -61 -110 -114 -110 -119 0 -5 -3 -8 -7 -7 -10 3 -268 -255 -265 -264 1 -5
-3 -8 -8 -8 -6 0 -10 5 -10 11 0 5 -5 7 -10 4 -6 -4 -16 -2 -23 3 -11 8 -24
13 -92 30 -44 12 -255 5 -255 -8 0 -3 -19 -11 -42 -18 -24 -8 -50 -20 -58 -27
-8 -7 -19 -15 -25 -16 -5 -2 -14 -7 -20 -11 -5 -5 -27 -22 -49 -38 -21 -17
-36 -30 -32 -30 3 0 -8 -13 -24 -29 -17 -15 -30 -33 -30 -40 0 -6 -4 -11 -8
-11 -11 0 -60 -109 -68 -152 -4 -25 -10 -35 -18 -31 -7 4 -6 1 1 -9 7 -8 10
-18 5 -22 -9 -10 -9 -165 0 -159 5 2 8 -7 8 -21 0 -33 0 -35 16 -72 7 -17 10
-35 6 -39 -4 -5 -2 -5 4 -2 6 3 17 -9 24 -28 8 -19 17 -35 22 -35 4 0 8 -5 8
-11 0 -10 38 -56 68 -83 7 -6 24 -21 37 -33 13 -13 31 -23 38 -23 8 0 17 -7
21 -15 3 -8 13 -15 23 -15 10 0 27 -7 37 -15 10 -8 23 -12 27 -9 5 3 9 1 9 -4
0 -9 8 -11 55 -14 14 -1 25 -5 25 -9 0 -11 170 -3 220 10 57 15 140 53 140 64
0 4 4 6 9 3 4 -3 37 23 72 58 75 75 98 103 105 134 4 12 10 22 14 22 8 0 36
90 32 103 -1 4 2 7 8 7 5 0 8 25 7 55 -1 30 2 55 6 55 5 0 6 9 2 19 -3 11 -8
37 -10 58 -7 65 -18 103 -51 165 l-25 47 243 245 c241 241 244 244 261 223 9
-12 17 -17 17 -13 0 4 13 -6 30 -24 17 -18 30 -29 30 -26 0 3 24 -12 53 -34
28 -22 67 -47 85 -55 17 -9 32 -20 32 -25 0 -6 9 -10 19 -10 11 0 22 -4 26 -9
6 -11 98 -56 135 -67 14 -4 31 -14 38 -23 8 -9 10 -10 7 -3 -6 11 -3 11 11 3
28 -16 141 -51 164 -51 11 0 20 -4 20 -9 0 -6 9 -8 20 -6 11 2 20 -2 20 -8 0
-7 4 -6 10 3 6 9 10 10 10 3 0 -6 8 -12 18 -11 9 0 28 -3 42 -6 13 -3 40 -7
60 -8 34 -2 62 -19 60 -35 -1 -4 -7 -14 -13 -22 -7 -8 -7 -12 -2 -9 13 8 13
-210 1 -231 -6 -9 -5 -12 1 -8 11 7 12 -78 1 -88 -3 -3 -18 -8 -34 -11 -16 -3
-31 -9 -34 -13 -3 -5 -22 -14 -42 -22 -21 -7 -38 -17 -38 -21 0 -4 -7 -8 -15
-8 -8 0 -15 -4 -15 -10 0 -5 -5 -10 -10 -10 -6 0 -29 -20 -53 -45 -62 -66 -66
-72 -79 -100 -6 -14 -15 -25 -19 -25 -5 0 -11 -16 -15 -35 -4 -20 -10 -32 -17
-28 -6 3 -7 1 -3 -6 4 -6 4 -17 -1 -24 -13 -17 -17 -61 -16 -157 2 -119 4
-140 16 -140 6 0 7 -3 4 -7 -4 -3 -2 -12 4 -20 6 -7 9 -13 5 -13 -12 0 54
-115 89 -154 19 -22 35 -44 35 -48 0 -5 5 -6 10 -3 6 3 13 -1 16 -9 3 -9 13
-16 21 -16 8 0 11 -4 8 -10 -3 -5 -2 -10 3 -10 6 0 37 -15 69 -33 32 -19 64
-32 71 -29 7 2 18 0 25 -6 7 -5 20 -8 30 -7 9 2 17 -1 17 -6 0 -5 47 -7 108
-4 130 6 142 7 136 16 -2 4 11 10 30 13 19 4 50 18 70 31 20 13 36 22 36 19 0
-3 6 1 14 8 7 7 29 26 49 42 20 17 34 34 31 38 -3 4 1 8 8 8 14 0 58 62 58 80
0 6 4 8 10 5 6 -3 7 1 4 9 -3 9 -2 16 4 16 5 0 15 20 22 45 7 25 17 48 21 51
5 3 9 10 9 15 0 6 -6 7 -12 3 -10 -6 -10 -5 -1 7 7 8 13 32 15 53 1 20 6 40
10 42 5 3 5 11 1 17 -4 7 -9 30 -10 52 -2 22 -8 55 -13 74 -5 19 -7 38 -4 43
3 4 1 8 -3 8 -5 0 -20 25 -33 55 -13 30 -28 55 -32 55 -4 0 -8 7 -8 15 0 9 -7
18 -15 21 -8 4 -15 10 -15 15 0 16 -83 89 -107 95 -13 3 -20 10 -17 15 3 5 -8
12 -25 15 -17 4 -31 11 -31 16 0 5 -4 7 -9 3 -5 -3 -12 -1 -16 5 -4 6 -11 8
-16 5 -8 -6 -13 8 -10 28 0 4 -3 7 -8 7 -4 0 -8 15 -7 34 0 19 4 32 9 29 4 -2
7 1 7 6 0 6 -4 11 -9 11 -4 0 -8 15 -7 34 0 19 4 32 9 29 4 -2 7 1 7 6 0 6 -4
11 -9 11 -4 0 -8 15 -7 34 0 19 4 32 9 29 4 -2 7 1 7 6 0 6 -4 11 -9 11 -4 0
-8 15 -7 34 0 19 4 32 9 29 4 -2 7 1 7 6 0 6 -4 11 -9 11 -6 0 -9 9 -8 20 1
21 23 34 39 23 6 -3 8 -2 5 3 -3 6 13 11 36 12 45 2 83 7 132 18 42 9 45 9 95
23 25 8 52 15 60 16 8 2 17 4 20 5 3 1 8 2 13 1 4 0 7 4 7 10 0 5 3 8 8 5 4
-2 23 3 42 12 19 8 37 16 40 17 3 1 21 8 40 16 19 7 38 12 43 11 4 -1 7 2 7 7
0 10 60 37 73 33 5 -1 6 2 2 8 -3 5 0 10 7 10 15 0 191 117 229 152 14 13 31
22 36 21 16 -6 193 -183 193 -194 0 -5 4 -9 9 -9 13 0 161 -150 161 -163 0 -6
3 -8 6 -5 7 7 74 -65 74 -79 0 -6 -7 -16 -15 -23 -8 -7 -13 -16 -10 -20 3 -5
-1 -15 -9 -23 -8 -8 -18 -28 -21 -43 -4 -16 -9 -36 -12 -44 -13 -32 -15 -58
-15 -135 0 -81 2 -100 23 -164 27 -83 50 -119 129 -201 50 -52 190 -144 190
-124 0 4 5 3 12 -4 7 -7 23 -12 36 -12 13 0 21 -3 19 -8 -3 -4 46 -7 108 -8
63 0 112 3 110 7 -3 3 10 9 28 12 34 6 103 34 152 64 29 17 150 133 139 133
-3 0 9 20 25 44 17 24 27 46 24 50 -4 3 -1 6 6 6 7 0 11 6 8 14 -3 7 -2 17 3
22 10 10 22 65 23 102 1 12 5 22 10 22 4 0 6 4 3 8 -3 5 -6 41 -8 80 -1 40 -6
72 -10 72 -4 0 -8 11 -8 25 0 14 -7 37 -16 50 -9 14 -14 25 -10 25 3 0 -9 24
-26 53 -36 58 -145 170 -159 161 -5 -3 -9 1 -9 9 0 13 -33 31 -52 28 -5 -1 -8
4 -8 11 0 6 -3 9 -6 5 -4 -3 -19 0 -34 8 -15 8 -30 11 -34 8 -3 -4 -6 -2 -6 3
0 12 -53 18 -150 17 -99 -1 -149 -6 -143 -15 2 -5 -3 -8 -12 -8 -9 0 -26 -5
-38 -12 -30 -16 -46 -18 -41 -5 2 7 -95 110 -216 230 -121 121 -222 222 -225
227 -3 4 8 23 23 43 15 19 34 45 42 57 8 12 21 28 28 36 6 7 12 17 12 22 0 5
9 20 19 34 20 25 112 202 115 222 1 6 7 20 13 31 12 23 27 76 25 88 -1 4 3 7
9 7 7 0 9 10 7 25 -3 14 -2 25 2 25 8 0 25 67 22 83 -1 4 2 7 6 7 4 0 9 10 9
23 1 12 4 36 6 52 3 17 8 58 12 92 5 38 12 64 21 67 8 3 14 0 14 -6 0 -6 6 -5
17 3 13 11 17 11 20 1 3 -6 9 -10 14 -6 15 9 109 11 109 2 0 -5 9 -4 20 2 15
8 20 8 20 -2 0 -8 3 -9 8 -3 10 14 32 17 32 4 0 -8 6 -7 17 2 13 11 17 11 20
1 3 -6 8 -10 13 -7 5 3 22 7 38 9 26 3 31 -1 36 -25 10 -52 12 -59 24 -71 7
-7 12 -19 12 -28 0 -9 9 -25 20 -35 11 -10 20 -22 20 -28 0 -16 116 -124 149
-138 17 -8 31 -17 31 -20 0 -6 17 -13 43 -17 4 -1 20 -8 35 -15 49 -26 196
-37 262 -21 14 3 33 6 43 6 9 -1 17 4 17 10 0 5 7 8 15 4 8 -3 15 -1 15 4 0 6
7 10 15 10 9 0 33 11 55 25 22 14 40 23 40 20 0 -3 8 3 18 13 10 9 33 29 52
44 19 16 31 28 27 28 -3 0 7 14 23 30 17 17 30 37 30 44 0 8 7 19 15 26 8 7
12 16 9 21 -3 5 0 9 5 9 6 0 11 4 11 9 0 5 5 22 12 38 33 78 34 204 5 330 -19
78 -109 208 -177 254 -76 52 -126 79 -147 79 -13 0 -23 5 -23 12 0 6 -3 9 -6
6 -3 -4 -20 -2 -37 3 -18 5 -68 9 -112 10 -86 0 -198 -28 -247 -62 -14 -11
-31 -19 -37 -19 -6 0 -11 -5 -11 -11 0 -5 -4 -8 -9 -5 -5 3 -11 -1 -15 -9 -3
-8 -12 -15 -21 -15 -8 0 -14 -3 -12 -8 1 -4 -14 -22 -33 -41 -19 -18 -34 -37
-33 -42 2 -5 -2 -9 -7 -9 -6 0 -10 -7 -10 -15 0 -8 -4 -15 -10 -15 -5 0 -10
-7 -10 -15 0 -8 -5 -15 -12 -15 -6 0 -9 -2 -6 -6 3 -3 -2 -22 -12 -42 l-18
-36 -115 -1 c-64 -1 -114 1 -112 5 2 4 -2 7 -10 7 -8 0 -12 -3 -10 -7 2 -4
-11 -7 -30 -7 -19 0 -32 3 -30 7 2 4 -2 7 -10 7 -8 0 -12 -4 -10 -8 3 -4 -12
-6 -32 -4 -33 2 -37 5 -38 31 -4 69 -18 134 -28 134 -7 0 -5 5 3 10 11 7 11
10 2 10 -7 0 -10 5 -7 10 3 6 3 16 -2 23 -4 6 -8 17 -8 22 -1 24 -18 81 -27
93 -6 6 -7 12 -3 12 4 0 1 8 -6 17 -8 9 -9 14 -2 10 6 -4 1 15 -12 42 -13 27
-27 61 -31 75 -3 14 -9 26 -14 26 -4 0 -12 18 -19 40 -6 22 -15 40 -19 40 -5
0 -14 16 -21 35 -7 19 -17 35 -22 35 -6 0 -7 5 -4 10 3 6 2 10 -4 10 -5 0 -13
10 -17 23 -4 12 -10 24 -13 27 -4 3 -18 21 -31 40 -27 39 -42 57 -82 105 -16
18 -28 36 -28 40 0 4 91 98 202 209 112 110 202 204 201 207 -1 3 9 12 22 19
20 11 28 9 62 -11 21 -13 40 -23 43 -23 3 1 16 -3 30 -8 62 -24 224 -33 280
-16 77 23 100 32 100 39 0 5 7 6 15 3 8 -4 15 -1 15 5 0 6 5 11 10 11 6 0 25
10 42 23 40 28 134 117 125 117 -4 0 2 10 13 22 11 13 23 33 26 45 4 13 10 23
15 23 5 0 5 7 2 17 -4 10 -2 14 5 9 7 -4 13 10 17 39 4 25 10 43 14 40 14 -8
9 207 -5 247 -7 21 -11 38 -7 38 3 0 0 7 -7 15 -7 8 -9 15 -4 15 5 0 3 4 -4 8
-7 5 -14 18 -17 30 -2 12 -11 29 -19 38 -9 8 -16 19 -16 24 0 14 -103 115
-138 135 -18 11 -32 23 -32 27 0 4 -6 8 -13 8 -7 0 -32 9 -55 20 -22 11 -53
20 -67 20 -14 0 -25 3 -25 8 0 4 -22 7 -50 7 -27 0 -50 4 -50 8 0 5 -6 5 -12
0 -7 -4 -29 -8 -48 -9 -19 -1 -35 -3 -35 -4 0 -1 -12 -4 -26 -6 -37 -6 -131
-45 -160 -67 -13 -9 -39 -28 -58 -42 -19 -14 -32 -25 -28 -25 3 0 -9 -15 -27
-32 -27 -28 -79 -102 -82 -118 0 -3 -6 -18 -12 -33 -7 -16 -12 -37 -12 -48 0
-11 -4 -18 -9 -15 -5 3 -8 -10 -7 -29 1 -19 -1 -35 -5 -35 -3 0 -4 -30 -2 -67
2 -38 3 -77 3 -88 0 -11 4 -29 9 -40 4 -11 15 -40 23 -65 l15 -45 -232 -232
c-231 -231 -232 -232 -255 -215 -12 9 -30 24 -40 34 -10 9 -27 19 -39 23 -12
3 -21 10 -21 14 0 4 -24 20 -52 35 -29 15 -81 43 -115 61 -35 19 -63 32 -63
29 0 -2 -13 2 -29 11 -26 13 -110 44 -136 50 -5 1 -18 5 -27 8 -10 4 -26 10
-35 14 -10 3 -31 7 -48 8 -16 2 -30 4 -30 5 0 3 -38 10 -85 16 -55 7 -85 12
-85 14 0 9 -35 5 -36 -3 -1 -7 -5 2 -8 18 -4 17 -4 40 0 52 5 14 4 23 -4 26
-9 3 -9 8 2 20 9 11 10 17 2 17 -13 0 -10 22 4 32 6 5 5 8 -4 8 -10 0 -11 3
-2 14 7 8 8 17 3 19 -9 6 -7 101 2 116 4 5 0 11 -6 14 -10 3 -10 7 0 19 8 10
9 17 3 20 -18 6 3 22 74 58 93 46 147 94 206 185 22 32 42 69 45 82 4 13 10
23 16 23 5 0 7 3 5 8 -3 4 1 34 8 67 12 62 12 136 -1 215 -4 25 -7 49 -5 53 1
5 -3 6 -9 2 -5 -3 -10 -1 -10 6 0 20 -52 124 -66 132 -8 4 -14 12 -14 18 0 10
-76 89 -86 89 -3 0 -14 9 -26 20 -12 11 -28 20 -35 20 -8 0 -11 5 -7 12 4 7 3
8 -5 4 -6 -4 -17 -3 -24 2 -35 27 -137 49 -230 49 -53 1 -97 -3 -97 -8z m166
-272 c4 -4 16 -7 26 -7 10 0 18 -5 18 -11 0 -5 4 -8 8 -5 12 7 86 -64 106
-103 10 -18 19 -47 21 -65 2 -17 4 -31 5 -31 1 0 3 -10 4 -22 2 -13 -1 -23 -5
-23 -4 0 -6 -8 -4 -17 1 -10 0 -22 -4 -28 -3 -5 -6 -12 -7 -15 -9 -45 -57 -99
-120 -134 -30 -17 -59 -23 -112 -25 -46 -1 -72 2 -72 8 0 6 -3 10 -7 9 -24 -4
-127 67 -118 82 3 4 -2 10 -10 14 -8 3 -15 15 -15 26 0 14 -4 19 -12 14 -7 -4
-8 -3 -4 4 4 7 4 18 -1 25 -9 15 -13 98 -5 112 4 6 8 19 9 29 5 27 42 86 55
86 6 0 9 3 5 6 -9 9 59 53 102 67 39 13 126 15 137 4z m-1929 -538 c7 -1 10
-6 7 -11 -3 -4 1 -8 9 -8 23 0 84 -61 107 -107 12 -24 22 -58 23 -77 0 -19 5
-32 10 -29 5 3 4 -4 -2 -15 -6 -12 -10 -25 -9 -29 8 -31 -57 -129 -115 -172
-45 -35 -151 -42 -225 -16 -7 2 -15 4 -18 4 -4 0 -10 3 -13 8 -3 4 -23 23 -44
41 -21 17 -34 32 -30 32 4 0 -1 7 -11 15 -11 8 -17 15 -13 15 3 0 0 15 -7 33
-19 47 -18 138 2 161 10 12 12 16 3 11 -15 -9 12 37 43 74 24 27 83 66 112 74
16 5 132 2 171 -4z m3899 2 c-4 -5 3 -7 14 -4 12 3 20 0 20 -6 0 -7 5 -9 10
-6 6 3 10 1 10 -4 0 -6 6 -11 14 -11 15 0 83 -77 78 -87 -2 -3 2 -9 9 -13 23
-15 30 -169 9 -195 -7 -8 -10 -15 -6 -15 3 0 -2 -10 -12 -22 -27 -35 -92 -99
-92 -92 0 3 -6 2 -12 -4 -31 -25 -143 -33 -193 -13 -16 7 -32 12 -34 11 -2 -1
-8 5 -13 14 -5 9 -13 16 -18 16 -29 0 -89 96 -93 146 -1 19 -6 34 -10 34 -4 0
-3 8 2 18 7 13 6 23 -1 30 -8 8 -9 12 -1 12 6 0 14 16 17 35 4 19 18 46 31 59
13 13 22 26 20 28 -3 2 13 15 35 29 22 13 40 27 40 31 0 4 6 5 14 2 8 -3 17
-1 21 5 3 6 37 11 76 11 40 0 68 -4 65 -9z m-1957 -909 c40 -42 81 -97 81
-108 0 -4 7 -15 16 -25 8 -9 17 -23 18 -31 2 -7 12 -34 24 -60 11 -25 29 -70
39 -100 10 -29 21 -55 24 -58 3 -3 5 -17 5 -32 -1 -14 1 -25 5 -22 6 3 11 -14
24 -71 1 -5 3 -12 4 -15 3 -7 8 -28 15 -72 l6 -38 -98 4 c-116 5 -225 8 -232
6 -3 0 -69 -2 -146 -4 l-142 -4 2 24 c0 13 4 24 9 24 4 0 6 3 5 8 -4 15 15 97
24 110 6 6 8 12 4 12 -3 0 -1 12 5 28 6 15 12 34 14 42 9 46 43 129 49 122 5
-4 6 0 5 8 -4 17 40 110 83 179 29 46 93 111 110 111 6 0 27 -17 47 -38z m551
-99 c30 -14 57 -29 60 -32 3 -4 16 -12 30 -19 38 -19 66 -36 82 -50 8 -6 18
-10 21 -7 4 3 5 2 2 -1 -2 -4 14 -20 36 -36 103 -74 310 -313 325 -375 4 -13
10 -23 14 -23 5 0 14 -16 21 -35 7 -19 16 -35 19 -35 4 0 7 -6 7 -12 0 -12 32
-89 54 -130 5 -10 5 -19 -1 -23 -6 -3 -10 -1 -10 6 0 7 -3 9 -7 6 -3 -4 -17 0
-30 8 -13 9 -23 13 -23 9 0 -3 -15 4 -34 15 -18 12 -41 21 -50 21 -9 0 -16 5
-16 11 0 5 -5 7 -10 4 -6 -4 -16 -2 -23 3 -7 5 -30 15 -52 21 -22 7 -47 15
-55 18 -8 3 -19 7 -25 8 -5 2 -30 9 -55 16 -25 7 -49 13 -55 14 -5 0 -15 4
-21 7 -6 4 -27 8 -47 10 -21 1 -37 5 -37 8 0 4 -12 7 -27 7 -67 3 -110 23 -97
45 3 4 1 8 -3 8 -5 0 -9 8 -10 18 0 9 -4 35 -8 57 -4 22 -9 55 -12 72 -3 18
-8 31 -12 29 -4 -3 -6 8 -5 22 0 15 -2 29 -6 32 -7 4 -19 53 -22 88 -1 6 -5
12 -10 12 -5 0 -8 6 -7 13 1 6 -3 25 -9 40 -7 16 -12 34 -12 42 0 8 -5 17 -10
20 -6 4 -8 10 -5 15 3 5 0 14 -7 22 -7 7 -15 22 -16 33 -2 11 -8 22 -13 23 -5
2 -9 12 -9 21 0 10 -3 21 -7 25 -4 3 -8 13 -9 20 -2 13 79 -16 196 -71z
m-1010 52 c-7 -8 -10 -15 -7 -15 3 0 -8 -27 -24 -60 -16 -33 -29 -64 -29 -68
0 -4 -7 -20 -15 -35 -9 -18 -10 -25 -2 -20 9 5 9 3 0 -8 -6 -8 -23 -57 -38
-109 -14 -52 -29 -102 -32 -110 -4 -8 -6 -25 -6 -37 0 -13 -3 -23 -6 -23 -4 0
-7 -8 -7 -17 -1 -23 -13 -93 -20 -114 -3 -11 -12 -15 -25 -12 -12 4 -25 0 -30
-8 -7 -12 -9 -12 -9 0 0 9 -4 10 -12 4 -7 -6 -23 -9 -35 -8 -12 1 -20 -2 -17
-7 3 -4 -13 -8 -35 -8 -22 0 -42 -4 -46 -10 -3 -5 -12 -7 -20 -3 -8 3 -15 0
-15 -7 0 -6 -4 -9 -9 -6 -8 5 -58 -8 -91 -24 -8 -4 -23 -6 -32 -4 -10 1 -18
-2 -18 -7 0 -5 -3 -8 -7 -7 -5 0 -16 -2 -25 -5 -10 -4 -26 -10 -35 -14 -10 -3
-20 -7 -23 -8 -3 -1 -12 -5 -20 -8 -33 -14 -75 -28 -79 -27 -2 1 -7 -2 -10 -7
-3 -5 -18 -14 -34 -21 -27 -11 -27 -11 -21 16 4 15 10 29 14 32 4 3 6 13 4 23
-1 9 1 17 5 17 4 0 18 25 31 55 13 30 27 55 32 55 4 0 7 3 6 8 -3 11 35 82 44
82 4 0 8 7 8 15 0 8 9 23 20 32 11 10 20 21 20 24 0 18 172 196 245 254 28 22
53 44 57 50 4 5 8 6 8 1 0 -5 11 1 25 14 14 13 25 20 25 16 0 -4 15 4 33 18
19 14 48 31 65 37 18 6 32 15 32 21 0 5 4 7 9 3 5 -3 12 -1 16 5 3 5 15 10 26
10 10 0 19 5 19 11 0 5 4 8 9 4 5 -3 12 -1 16 5 3 5 17 10 30 10 13 0 27 5 30
11 4 6 9 8 12 5 3 -3 0 -12 -7 -21z m174 -856 c-4 -8 1 -9 16 -4 35 11 333 13
354 3 13 -7 16 -7 12 1 -10 15 7 14 22 -1 9 -9 12 -9 12 2 0 13 2 13 10 0 7
-11 10 -11 10 -2 0 9 6 10 18 4 9 -4 36 -8 60 -8 23 1 42 -2 42 -5 0 -4 8 -6
17 -5 11 0 18 -6 18 -19 0 -11 4 -26 8 -32 5 -8 4 -13 -3 -13 -7 0 -8 -5 -3
-12 12 -19 12 -501 0 -515 -6 -9 -5 -13 4 -13 9 0 10 -3 4 -8 -5 -4 -10 -20
-10 -37 1 -55 12 -52 -170 -58 -22 -1 -43 -6 -47 -12 -5 -6 -8 -6 -8 2 0 12
-17 12 -37 0 -6 -4 -14 -3 -18 3 -4 6 -12 7 -18 3 -17 -10 -40 -10 -54 1 -8 5
-13 4 -13 -3 0 -9 -5 -9 -20 -1 -14 8 -20 8 -20 0 0 -8 -6 -8 -20 0 -14 8 -20
8 -20 0 0 -6 -5 -8 -12 -4 -18 11 -48 12 -54 2 -3 -5 -11 -5 -17 0 -7 5 -28 9
-47 10 -103 1 -130 5 -131 21 -1 9 -3 27 -5 41 -1 14 -4 71 -5 128 -2 57 -7
106 -11 109 -5 2 -4 11 3 19 9 11 8 14 -2 14 -9 0 -10 3 -4 8 6 4 11 52 11
107 1 55 3 135 5 178 4 85 9 91 77 90 18 0 35 4 38 8 3 5 7 9 10 9 3 0 2 -5
-2 -11z m939 -62 c9 -1 17 -5 17 -10 0 -5 9 -7 20 -4 11 3 20 0 20 -6 0 -6 3
-8 6 -4 3 3 23 -1 45 -8 21 -8 39 -12 39 -8 0 3 11 -2 25 -11 18 -12 25 -13
25 -4 0 9 3 10 8 2 6 -11 34 -22 57 -25 6 0 19 -6 30 -12 11 -6 22 -12 25 -12
17 -3 106 -50 112 -59 4 -6 8 -7 8 -3 0 10 85 -46 122 -81 15 -14 25 -29 22
-34 -3 -4 0 -8 5 -8 17 0 13 -25 -6 -46 -10 -11 -36 -33 -58 -49 -22 -17 -42
-32 -45 -35 -14 -15 -128 -69 -134 -63 -3 3 -6 1 -6 -6 0 -8 -6 -11 -16 -7 -8
3 -12 2 -9 -4 3 -6 -2 -10 -12 -10 -10 0 -29 -6 -44 -13 -14 -8 -33 -13 -42
-11 -9 1 -15 -2 -11 -7 3 -5 -9 -9 -25 -9 -17 0 -31 -5 -31 -12 0 -6 -3 -9 -6
-6 -3 4 -20 2 -37 -4 -18 -5 -39 -11 -47 -13 -8 -2 -17 -4 -20 -5 -3 -1 -13
-2 -22 -1 -10 1 -18 -3 -18 -9 0 -6 -4 -8 -10 -5 -5 3 -19 1 -31 -6 -15 -8
-19 -8 -15 0 4 6 2 11 -4 11 -7 0 -9 12 -6 33 6 32 7 469 2 539 -3 34 -1 36
23 31 14 -2 34 -5 44 -6z m-1330 -9 c-5 -7 -9 -43 -8 -80 0 -38 -2 -68 -5 -68
-7 0 -4 -96 4 -109 4 -6 3 -11 -1 -11 -9 0 -8 -103 1 -127 3 -7 1 -13 -5 -13
-6 0 -7 -5 -4 -10 8 -13 14 -160 8 -177 -4 -9 -10 -10 -23 -3 -9 5 -32 12 -51
15 -19 3 -52 11 -74 17 -22 6 -44 12 -50 14 -23 6 -132 43 -160 55 -16 7 -32
13 -35 13 -14 3 -129 62 -154 80 -72 51 -116 94 -116 113 0 18 86 100 120 115
17 7 30 16 30 19 0 9 62 32 79 30 7 -1 10 2 7 8 -5 8 63 38 73 32 2 -2 7 1 10
6 9 13 113 43 124 36 6 -3 7 -1 4 5 -5 6 12 13 43 17 27 4 50 11 50 16 0 5 5
9 11 9 5 0 8 -4 4 -10 -3 -5 7 -3 22 5 36 19 110 21 96 3z m-1793 -78 c0 -4
13 -10 29 -13 31 -6 111 -75 111 -95 0 -7 5 -12 10 -12 6 0 10 -9 10 -19 0
-11 5 -23 10 -26 15 -9 13 -145 -2 -145 -6 0 -9 -3 -5 -6 10 -10 -22 -65 -58
-101 -48 -48 -110 -71 -181 -68 -73 4 -84 6 -84 17 0 4 -4 7 -9 6 -5 -2 -27
10 -49 27 -39 29 -80 90 -87 130 -2 11 -4 20 -5 20 -9 0 -4 79 7 114 35 116
118 177 246 178 31 0 57 -3 57 -7z m5000 -2 c0 -6 6 -8 12 -6 7 3 18 0 25 -6
30 -27 43 -36 48 -36 10 0 35 -28 35 -39 0 -6 5 -11 10 -11 6 0 10 -7 10 -15
0 -8 4 -15 8 -15 5 0 9 -6 10 -12 1 -20 7 -42 13 -53 7 -14 4 -86 -5 -110 -4
-11 -12 -31 -17 -45 -29 -76 -129 -137 -228 -138 -34 0 -61 4 -61 8 0 4 -13
10 -29 13 -36 8 -118 85 -126 120 -4 15 -11 30 -16 33 -5 3 -9 34 -9 70 0 146
108 251 258 251 34 0 62 -4 62 -9z m-1306 -655 c-28 -82 -27 -76 -25 -85 0 -5
-3 -8 -9 -8 -5 0 -10 -8 -10 -19 0 -10 -7 -24 -15 -31 -8 -7 -15 -21 -15 -31
0 -9 -8 -25 -17 -35 -10 -10 -17 -20 -17 -23 3 -12 -20 -51 -29 -51 -6 0 -7
-3 -4 -7 4 -3 -3 -17 -15 -30 -12 -13 -18 -23 -14 -23 4 0 -2 -10 -14 -22 -11
-12 -20 -29 -20 -37 0 -14 -1 -14 -10 -1 -9 13 -10 13 -10 -1 0 -8 -20 -37
-45 -63 -25 -27 -45 -53 -45 -59 0 -6 -2 -8 -5 -5 -3 3 -25 -13 -49 -36 -24
-23 -56 -50 -72 -61 -15 -11 -36 -28 -46 -37 -10 -10 -22 -18 -27 -18 -5 0
-14 -7 -21 -15 -7 -8 -16 -12 -21 -9 -5 3 -9 1 -9 -5 0 -5 -10 -13 -22 -17
-13 -4 -25 -10 -28 -14 -8 -11 -110 -60 -126 -60 -8 0 -14 -5 -14 -11 0 -5 -4
-8 -9 -4 -5 3 -12 1 -16 -5 -3 -5 -12 -10 -20 -10 -8 0 -26 -5 -42 -12 -15 -6
-31 -12 -35 -12 -3 -1 -10 -4 -14 -8 -18 -19 -21 6 -4 34 10 17 17 35 14 40
-3 4 0 8 5 8 6 0 11 7 11 15 0 8 4 15 10 15 5 0 9 3 8 8 -1 4 9 30 22 57 13
28 24 57 25 65 1 8 7 29 14 45 30 73 86 290 84 328 0 9 3 17 7 17 5 0 7 14 6
30 -1 17 1 30 6 30 4 0 8 7 8 15 0 8 3 14 8 13 4 0 32 3 62 7 30 5 58 8 63 7
4 -1 7 2 7 7 0 6 12 9 28 7 15 -1 32 2 39 6 6 5 26 11 43 13 18 3 37 8 44 13
6 4 20 8 31 8 11 -1 26 4 33 11 7 7 19 10 27 7 8 -4 15 -1 15 5 0 6 3 10 8 9
10 -3 78 20 142 49 30 14 55 24 55 23 0 -2 16 7 35 19 55 33 59 27 34 -46z
m-2514 46 c0 -5 5 -7 10 -4 6 3 10 1 10 -6 0 -7 3 -9 6 -6 4 3 16 0 28 -8 11
-8 28 -15 38 -15 10 0 18 -5 18 -11 0 -6 7 -9 15 -5 8 3 15 2 15 -2 0 -7 132
-56 152 -57 3 0 9 -3 13 -7 4 -4 13 -4 21 -1 8 3 14 0 14 -6 0 -6 3 -10 8 -10
4 1 27 -2 52 -7 25 -4 48 -7 53 -6 4 1 7 -2 7 -7 0 -6 9 -8 20 -6 11 2 20 -1
20 -6 0 -6 8 -9 18 -8 9 2 35 -1 57 -6 22 -4 46 -9 54 -9 14 -1 16 -7 31 -86
13 -69 20 -104 26 -120 3 -8 8 -26 10 -40 3 -14 7 -32 11 -40 3 -8 7 -19 9
-25 8 -29 17 -63 21 -87 3 -16 9 -28 14 -28 5 0 8 -3 7 -7 -5 -21 80 -218 112
-257 8 -11 9 -16 3 -12 -8 4 -13 2 -13 -5 0 -7 -8 -6 -25 5 -13 9 -36 16 -50
16 -15 0 -24 4 -21 9 3 5 -10 12 -29 15 -19 4 -41 14 -50 22 -8 9 -15 13 -15
9 0 -5 -38 15 -137 71 -18 11 -33 23 -33 27 0 5 -4 5 -10 2 -5 -3 -10 -2 -10
3 0 5 -17 21 -38 35 -48 31 -196 177 -242 237 -19 25 -39 48 -45 52 -5 4 -6 8
-1 8 4 0 -4 16 -18 35 -36 47 -116 203 -116 227 0 10 -4 18 -8 18 -8 0 -36 83
-32 96 1 4 -4 11 -12 15 -9 6 -7 9 10 9 12 0 22 -5 22 -11z m1043 -241 c-2 -5
1 -8 6 -8 6 0 11 4 11 8 0 5 7 9 15 9 8 0 12 -3 11 -6 -2 -3 72 -6 165 -6 106
0 169 4 169 10 0 6 5 3 10 -5 9 -13 10 -13 10 0 0 13 1 13 10 0 5 -8 10 -10
10 -4 0 6 18 10 43 9 35 -1 42 -5 41 -21 -2 -22 -20 -105 -24 -111 -3 -3 -2
-2 -15 -58 -4 -22 -8 -43 -7 -47 1 -5 -2 -8 -8 -8 -6 0 -9 -3 -8 -7 3 -16 -25
-103 -33 -103 -5 0 -9 -6 -9 -14 0 -8 -5 -27 -11 -43 -6 -15 -9 -29 -7 -29 2
-1 -6 -11 -16 -23 -11 -12 -15 -21 -10 -21 5 0 4 -4 -3 -8 -6 -4 -18 -19 -26
-32 -37 -68 -53 -90 -65 -90 -7 0 -11 -4 -8 -8 3 -5 -4 -16 -15 -25 -10 -9
-19 -13 -19 -9 0 4 -4 1 -9 -7 -8 -12 -20 -4 -60 35 -28 27 -51 55 -51 62 0 6
-3 12 -8 12 -6 0 -57 94 -83 155 -27 61 -74 203 -74 220 1 11 -2 22 -6 25 -4
3 -10 19 -13 35 -3 17 -10 48 -15 69 -5 22 -8 43 -6 46 2 3 28 6 58 5 30 0 53
-3 50 -7z m-1740 -1110 c-2 -5 6 -8 19 -8 37 0 138 -79 138 -107 0 -7 5 -13
12 -13 6 0 8 -3 5 -6 -3 -4 -2 -15 4 -26 6 -11 11 -32 11 -48 1 -16 5 -27 11
-23 5 3 3 -5 -4 -18 -7 -13 -11 -25 -10 -27 8 -7 -11 -72 -21 -72 -6 0 -8 -3
-5 -6 11 -12 -54 -84 -93 -104 -21 -11 -40 -16 -44 -13 -3 4 -6 1 -6 -5 0 -20
-131 -15 -159 5 -16 10 -21 12 -16 3 5 -7 -3 -5 -17 6 -14 10 -23 23 -20 28 3
5 0 6 -7 2 -12 -8 -41 16 -41 33 0 6 -4 11 -8 11 -5 0 -18 19 -28 42 -26 57
-25 150 1 208 20 45 58 90 76 90 5 0 12 7 16 16 3 8 12 13 19 10 8 -3 14 -2
14 3 0 10 81 27 127 26 17 0 29 -3 26 -7z m3940 -3 c20 -4 37 -11 37 -17 0 -5
4 -7 9 -4 5 3 14 -1 21 -9 7 -8 19 -15 26 -15 8 0 14 -4 14 -8 0 -5 11 -21 24
-37 31 -36 55 -112 50 -161 -6 -60 -15 -94 -25 -94 -6 0 -8 -4 -5 -9 3 -5 -1
-14 -9 -21 -8 -7 -12 -16 -9 -21 3 -5 -2 -9 -10 -9 -9 0 -16 -8 -16 -17 0 -9
-3 -14 -6 -10 -3 3 -24 -7 -47 -23 -37 -25 -50 -28 -119 -28 -43 0 -78 4 -78
10 0 5 -5 6 -10 3 -6 -3 -32 11 -59 32 -47 36 -86 99 -93 148 -2 11 -7 23 -12
26 -4 4 -3 17 4 29 10 18 9 24 -1 31 -10 6 -11 9 -1 9 6 0 11 3 10 8 -4 13 23
82 32 82 5 0 12 9 15 20 4 11 11 18 16 15 5 -4 9 -2 9 4 0 17 59 53 108 66 47
13 56 13 125 0z m-1958 -536 c4 -6 13 -8 21 -5 8 3 14 2 14 -3 0 -5 11 -12 25
-15 14 -4 24 -10 21 -15 -3 -4 5 -14 18 -21 23 -12 62 -78 72 -122 11 -46 2
-147 -14 -157 -6 -3 -12 -13 -14 -21 -6 -26 -68 -81 -116 -102 -53 -24 -110
-30 -131 -14 -12 9 -13 8 -6 -4 6 -12 5 -13 -6 -3 -7 7 -20 13 -29 13 -23 0
-80 29 -80 41 0 5 -7 9 -15 9 -8 0 -15 7 -15 15 0 8 -4 15 -9 15 -15 0 -50 76
-47 104 2 14 0 23 -4 21 -5 -3 -7 15 -7 40 1 25 5 45 10 45 4 0 7 7 7 16 0 18
28 71 50 94 28 30 89 72 98 67 4 -3 14 -2 22 4 21 12 127 11 135 -2z"/>
</g>
</svg>
